<?xml version="1.0" encoding="UTF-8" standalone="no"?>
<svg
   xml:space="preserve"
   width="500mm"
   height="500mm"
   viewBox="0 0 500 500"
   version="1.1"
   id="svg2"
   sodipodi:docname="favicon.svg"
   inkscape:version="1.3.2 (091e20ef0f, 2023-11-25)"
   xmlns:inkscape="http://www.inkscape.org/namespaces/inkscape"
   xmlns:sodipodi="http://sodipodi.sourceforge.net/DTD/sodipodi-0.dtd"
   xmlns="http://www.w3.org/2000/svg"
   xmlns:svg="http://www.w3.org/2000/svg"><defs
   id="defs2" /><sodipodi:namedview
   id="namedview2"
   pagecolor="#ffffff"
   bordercolor="#000000"
   borderopacity="0.25"
   inkscape:showpageshadow="2"
   inkscape:pageopacity="0.0"
   inkscape:pagecheckerboard="0"
   inkscape:deskcolor="#d1d1d1"
   inkscape:document-units="mm"
   inkscape:zoom="0.29634845"
   inkscape:cx="819.98066"
   inkscape:cy="1002.1986"
   inkscape:window-width="1920"
   inkscape:window-height="996"
   inkscape:window-x="0"
   inkscape:window-y="24"
   inkscape:window-maximized="1"
   inkscape:current-layer="svg2" />
    <path
   d="M 170.50353,491.79427 C 104.25019,465.52807 53.378836,415.96064 30.155795,355.04359 14.561611,319.12926 3.6456584,252.8259 0.52682936,196.19176 c -1.55942496,-58.01543 0,-58.01543 9.35650704,-78.73524 9.3565276,-16.57584 14.0347806,-20.719803 26.5101366,-23.482443 12.475356,-4.14396 18.713034,-2.76264 31.188389,1.38132 20.27244,6.906613 31.18838,27.626403 34.307208,66.303383 5.15265,45.49585 15.60432,90.39745 31.1884,133.98805 26.51013,75.97261 81.08981,111.88692 140.34774,96.69241 41.43764,-7.91537 75.50255,-33.92771 90.44632,-69.06601 15.59418,-45.58357 20.27245,-117.41222 7.79711,-178.1903 l -6.23769,-26.24509 12.47536,-20.719823 c 15.59419,-24.863747 35.86664,-35.91431 57.6985,-31.770353 15.59421,2.76265 29.62897,15.194518 32.74781,30.389053 l 12.47536,31.770363 c 30.17429,75.60491 24.54994,158.80543 -15.5942,230.68047 -27.61684,45.49419 -67.86952,84.00207 -116.95644,111.88692 -53.17418,29.13772 -117.90039,36.68166 -177.77381,20.7198 z M 220.40495,129.88841 C 232.88031,93.974077 307.73243,13.857506 338.92081,2.8069445 365.43095,-6.862296 385.7034,9.7135465 373.22804,33.195988 339.94971,72.97595 297.40343,105.95208 248.4745,129.88841 c -26.51014,9.66924 -31.18839,9.66924 -28.06955,0 z"
   style="fill:#ca870a;stroke-width:14.6767"
   id="path1"
   sodipodi:nodetypes="cccccccccccccccccccccccc" />
</svg>
