<svg
    xmlns="http://www.w3.org/2000/svg"
    xml:space="preserve"
    width="500mm"
    height="500mm"
    viewBox="0 0 500 500"
>
    <path
        d="M242.3 298.3a16.7 16.7 0 0 1-9-9.9c-1-2.6-1.7-7.4-1.9-11.5-.1-4.2 0-4.2.6-5.7.6-1.2.9-1.5 1.7-1.7.8-.3 1.2-.2 2 .1 1.3.5 2 2 2.2 4.8a48 48 0 0 0 2 9.7c1.7 5.5 5.2 8.1 9 7a8 8 0 0 0 5.8-5c1-3.3 1.3-8.5.5-12.9l-.4-1.9.8-1.5c1-1.8 2.3-2.6 3.7-2.3 1 .2 1.9 1.1 2.1 2.2l.8 2.3a21.5 21.5 0 0 1-1 16.7 22 22 0 0 1-7.5 8.1 14 14 0 0 1-11.4 1.5zm-44.8-3.8.5-.4c.4-.4.4-.3 0 0-.3.5-.5.7-.5.4zm-3.2-.9c-.3-.4-.3-.4.1 0 .3.1.5.4.5.4 0 .2-.3 0-.6-.4zm-3.6-10.2c0-.3 0-.4.1-.2v.5c-.1.1-.2 0-.1-.3zm23.6-5.5-.5-.6.6.5.6.6c0 .2-.2 0-.7-.5zm-1.5-.6h.5l-.3.1c-.3 0-.4 0-.2-.1zm-17.4-2.4c0-.3 0-.4.2-.2v.6c-.1 0-.2-.1-.2-.4zm15.3-.2.8-.2h.7c-.2.3-1.5.4-1.5.2zm34.8-2.6c.8-2.6 5.6-8.4 7.6-9.2 1.7-.7 3 .5 2.2 2.2a25 25 0 0 1-8 7c-1.7.7-2 .7-1.8 0zm-62-1.3c0-.8.1-1.1.2-.7v1.5l-.1-.8zm7.7.2c0-.5 0-.6.1-.4.1.3.1.6 0 .8v-.4zm-2.6-2.7c0-.6 0-.8.1-.4v1l-.1-.6zm43-1c0-.4.1-.4.2-.2v.5l-.1-.4zm-43-1.9c0-.9 0-1.2.1-.7a7 7 0 0 1 0 1.6l-.1-.9zm11.8.7h.5c0 .2 0 .2-.4.2-.3 0-.3 0-.1-.2zm24.1-3c0-.3.1-.5.2-.3v.7c-.1.2-.2 0-.2-.3zm9.8.1c-.4-.4-.4-.4 0 0 .5.3.6.5.4.5l-.4-.5zm-41.6-.8c-.3-.4-.3-.4.1 0 .5.3.6.5.4.5l-.5-.5zm2.4.4.5-.5c.4-.3.4-.3 0 .1-.3.5-.5.6-.5.4zm56.4-1.6c0-.5.1-.6.2-.4v.8c-.1.2-.2 0-.2-.4zm-71.4-2.5c0-.4 0-.6.1-.4v.7l-.1-.3zm16.4-.7c0-.7 0-1 .1-.6v1.3-.7zm24 .2c-.3-.4-.3-.4 0-.1.5.3.7.6.5.6l-.5-.5zm-15-.2c0-.3 0-.4.1-.2v.5l-.1-.3zm4.7-1.9c0-.3.1-.3.2-.1v.5c-.1 0-.2-.1-.2-.4zm37.3-2.4-.6-.7.7.6c.7.6.8.8.6.8l-.7-.7zm6.8-1h.6l-.4.1c-.3 0-.4 0-.2-.1zm-70.8-1.6c0-.3 0-.4.2-.2v.5c-.1.1-.2 0-.2-.3zm36.7-.3h.7l-.4.1h-.3zm6.2-.7c0-.5 0-.6.1-.4.1.3.1.6 0 .8l-.1-.4zm14.8-.3c0-.3 0-.4.1-.2v.5l-.1-.3zm8.1-.6c-.3-.4-.3-.4.1-.1.5.3.6.6.4.6l-.5-.5zm-84-.2c0-.2.1-.3.2-.2.2 0 .2.2.1.4-.2.3-.3.3-.3-.2zm68.8-.7-.5-.6.6.5.6.6c0 .2-.2 0-.7-.5zm-72.8-.4c0-.3 0-.4.1-.1v.5l-.1-.4zm78.5-.8c-.3-.4-.3-.4.1-.1l.5.4c0 .3-.2.1-.6-.3zm-27-.8a7 7 0 0 1 1.6 0l-.9.1c-.9 0-1.2 0-.7-.1zm-51.5-1.4c0-.4 0-.5.1-.3v.6l-.1-.3zm41.2 0 .5.1s0 .2-.4.1c-.3 0-.3 0-.1-.1zm-4-.4h.5l-.3.1c-.3 0-.4 0-.2-.1zm34.5 0 .4-.4c.4-.4.5-.3.1 0-.3.5-.5.7-.5.4zm-39-.6h.5c.1.1 0 .2-.3.2s-.4 0-.2-.2zm-14.3-.2h1-1zm10.3 0h1.1-1.1zm54.9-.8c0-.3 0-.4.2-.2v.5c-.2.1-.2 0-.2-.3zm-34.5-.6h.5c.1.1 0 .2-.3.2s-.4 0-.2-.2zm35.7-1h.7l-.3.1c-.4 0-.6 0-.4-.1zm-18.4-.2.4-.5c.5-.3.5-.3.1.1-.3.5-.5.6-.5.4zm-15.7-.8c-1.7-.4-4.6-1.8-5.2-2.5a28 28 0 0 0-1.4-1.2c-2.5-2.2-3.8-6.9-3-10.7a11.5 11.5 0 0 1 12.9-9.3c3 .5 5.4 1.6 7.3 3.5a8.8 8.8 0 0 1 2.8 5c.6 2.3.5 6.6-.3 8.6a12 12 0 0 1-4.7 5.3c-3.3 1.7-5.4 2-8.4 1.3zm4.9-5c1.8-.3 2.6-.8 4-2.1 1-.9 1.3-1.4 1.9-3.2a8 8 0 0 0-.2-6.6 8 8 0 0 0-8.2-5.5c-2 0-2.7.1-4.5.8-1.1.5-2.4 1.1-2.9 1.5a5 5 0 0 0-1.5 4c.2.7.1.9 0 .6-.3-.3-.3.2-.3 1.7.2 3.5 1.8 6 5.2 8 2 1.1 3.9 1.4 6.5.8zm-7.8-8h.5l-.3.1c-.3 0-.4 0-.2-.1zm-2.7-1.3-.8-.8.8.8c.8.7 1 1 .8 1l-.8-1zm-5 12.9h.5c.1.1 0 .2-.3.2s-.4-.1-.2-.2zm54.4-.4-.5-.6.6.5.6.6c0 .2-.2 0-.7-.5zm-67.4-.4h2.3-2.3zm13.6-1.6c-.4-.4-.3-.4 0-.1l.5.5c0 .2-.2 0-.5-.4zm48.1-.5h.5c.1.1 0 .2-.3.1-.3 0-.4 0-.2-.1zm-3-.3h.8c.1.1 0 .2-.5.2s-.6-.1-.3-.2zm3.4-.5h.8l-.5.1c-.4 0-.6 0-.3-.1zm-85-1.8.9-.8.8-.8-.8.9c-.7.8-.9 1-.9.7zm85.7-4.6h1.1c.4.1.1.2-.6.2-.6 0-.9-.1-.5-.2zm-80.2-1.2c-.2-.3-.2-1-.1-2.3.3-4.4 4.3-9.5 6.2-8 .5.4.6.9.8 4.3l.1 3.9-1.5.4-3.2 1.3c-2 .9-1.8.9-2.3.4zm83.6-1.7c-.3-.4-.3-.4.1 0 .3.1.5.3.5.4 0 .2-.2 0-.6-.4zm-13.2-.2.5-.4c.4-.3.4-.3 0 0-.3.5-.5.7-.5.4zm-56-1-.5-.6.6.5c.6.5.8.7.5.7l-.6-.6zm64.4-2.7h1.2-1.2zm-67.6-1.7c0-.4 0-.5.1-.3v.6-.3zm-3.7-.3c0-.3 0-.5.1-.3v.7l-.1-.4zm73-2.8h.4c.1.1 0 .2-.3.2s-.4-.1-.2-.2zm-4-.5h.5l-.4.1c-.3 0-.3 0-.1-.1zm-4-.6h.5c0 .2 0 .2-.3.2-.4 0-.4 0-.2-.2zm-15.9-.8c-.3-.4-.3-.4.1 0 .3.1.5.3.5.4 0 .2-.2 0-.6-.4zm-17-1h.6c0 .1 0 .2-.4.2-.3 0-.3-.1-.1-.2zm25-2.7c-.4-.4-.3-.4 0 0 .5.3.7.5.4.5l-.4-.5zm-53-2 .6-.5c.4-.3.4-.3 0 .1-.3.5-.5.6-.5.4zm6.2-1 .7-.7c.1 0-.1.3-.5.6l-.7.7.5-.7zm55 .1h.5c0 .1-.1.2-.4.2-.3 0-.3 0-.1-.2zm-12.5-1.8h.5c.1 0 0 .2-.3.1-.3 0-.4 0-.2-.1zm2.7 0h.6l-.3.1c-.4 0-.5 0-.3-.1zm-29-4.9h.5c.1.1 0 .2-.3.2s-.4 0-.2-.2zm13 0h.5c0 .1 0 .2-.3.2-.4 0-.4 0-.2-.2zm5.8 0h.5c.1.1 0 .2-.3.2s-.4 0-.2-.2zm-13.9-4.5h1l-.5.1h-.5zm4.4 0h.6c.2.1 0 .2-.3.2-.4 0-.5-.1-.3-.2zm14.8-1h.7l-.4.1c-.3 0-.5 0-.3-.1z"
        style="fill: #ca870a"
        transform="matrix(4.9 0 0 4.9 -789.8 -959.8)"
    /><path
        d="M195.8 294.5c-2.3-1-4-4.7-4.3-8.7-.2-3.2.5-4.7 2.3-4.7 1 0 2.3 1.6 2.5 2.8l1.1 4.4c1.2 4.2 1.3 5.1.3 6-.9.7-.9.7-2 .2zm-8.8-8.8c-.8-.7-1-1.2-1.8-4.4a40.3 40.3 0 0 1-1.4-11.7c.2-5 1.4-7.6 3.2-7.1 1.3.3 1.4.6 1.6 5.5a52 52 0 0 0 1.4 11.7c.9 3.7.8 4.7-.1 5.7-1 .9-2 1-2.9.3zm17.3-.5a7 7 0 0 1-1.6-1.8c-1-1.3-1-1.7-1-3.3 0-1.7 0-2 .5-2.4.9-.7 1.6-.7 2.4.2 1 1 2.5 4.6 2.5 6 0 1.6-1.2 2.2-2.8 1.3zm8.9-2.5c-1.6-1-2.4-3.7-1.4-4.9.5-.6 2-.4 2.7.4 1.6 1.7 2 3.6.8 4.5-.8.7-1 .7-2.1 0zm-21-6c-.8-.9-1.1-2.8-.9-5.8.2-1.8.3-2.4.9-3 .8-1 1.8-1 2.7 0 .6.6.6.7.6 4.2 0 3 0 3.8-.4 4.4-.6.9-2 1-2.9.2zm8.8-1.9c-1.6-1-2.8-4.7-2.3-6.7.2-1 1-1.8 2-1.8 1.2 0 2 1.2 2.6 4 .7 3 .7 4 0 4.6-.8.6-1.2.5-2.3 0zm8.6-1a10.5 10.5 0 0 1-2.3-5.5c0-1.5 0-1.7.6-2.3 1.4-1.4 2.7-.6 3.5 2l1 3.3c.8 2.4.5 3.2-1.3 3.2-.6 0-1-.2-1.5-.8zm10-1.6c-1.3-.6-2-1.6-2.7-3.6-.7-2-.6-3.7.2-4.4 1.2-1 2.4-.3 3.3 2l1.5 2.9c1.1 1.8 1.2 2.3.5 3-.7.7-1.4.7-2.9 0zm8.7-3.5a11 11 0 0 1-3.4-4c-.4-2.2.2-3.7 1.5-3.7 1 0 2.7 1.6 4 3.7 1.4 2 1.6 3.1.8 3.8-.6.5-2 .6-2.9.2zm8.2-3.6c-2-1.4-3.8-3.9-3.8-5.2 0-1.7 1.7-2.3 3.5-1.1.8.6 3 3.1 3.8 4.5.5.8.4 1.6-.2 2.2-.7.8-1.8.7-3.3-.4zm12.2-2c-1.4-.5-4.4-4.2-5.8-7-1.1-2-1.2-2.8-.3-3.7.8-.8 1.3-.8 3 .1 2.8 1.4 5.9 5.8 5.9 8.5 0 2-1 2.9-2.8 2.2zm-55.7-.7c-.5-.5-.8-1-.8-1.6 0-1 1.2-5 1.8-5.6.5-.7 1.4-.7 2 0 .4.4.5 1 .4 3.5v3l-1 .7c-1 1-1.4 1-2.4 0zm9.8.2c-1.1-1-1.5-5.1-.6-6.8.6-1.2 1.5-1.7 2.3-1.3 1 .5 1.2 1 1.2 4 0 2.9 0 3.1-.7 3.9-.8.9-1.5 1-2.2.2zm-22-2.3c-1-1.3-.6-2.7 1.7-6.2.6-1 1-2 1.1-2.8.3-2 .7-3 1.4-3.4.6-.4.7-.4 1.3 0 1.2.6 1.8 2 1.8 4 0 1.7-.1 2.1-1.1 4.2-1.5 3-3.4 5-4.7 5-.6 0-1-.2-1.4-.8zm31.3.1c-1-1-1.3-1.9-1.7-4-.2-1.6-.2-2 .2-2.7.7-1.5 2-1.7 2.9-.6.2.2.5.8.5 1.2l.6 3c.4 2.2.4 2.4 0 3-.6 1-1.8 1-2.6.1zm8.7-2.2a10 10 0 0 1-2.1-5.2c0-1 1-2 1.8-2 1 0 1.6.5 2 2 .2.7.7 1.9 1.2 2.6.9 1.5 1 2.1.4 3-.7 1-2.1.8-3.3-.4zm8.7-3.4c-.8-.7-1.6-1.6-1.9-2.1-.2-.5-.6-1-.7-1-.2-.1-.3-.7-.3-1.4 0-.9.1-1.2.6-1.4 1-.6 2 0 3.7 1.7 2.2 2.3 2.8 3.8 2 5-.7.8-1.9.5-3.4-.8zm22.8-3.1a33.3 33.3 0 0 1-6.7-7c-.5-1.3-.6-2.5-.1-3 .3-.3 1.6-.3 2.7.1 1.5.5 6.2 4.8 7.1 6.4.8 1.3 1 3.3.4 4-.6.7-2 .5-3.4-.5zm-13.8-.4a20 20 0 0 1-5-4.1c-1.5-2.4.4-4.3 2.9-2.8a16 16 0 0 1 4.2 3.8c1.3 2 0 4-2 3.1zm-76.6-1.7c-1.2-3.5 0-10.9 2.5-14.5 2.8-4 8-7.2 14.3-8.9a22 22 0 0 0 4-1.4c1.4-.8 2.4-1 2.4-.6a32.3 32.3 0 0 0 6.8 5.4l7 4.5c2 1.1 3.9 3 3.9 3.8 0 1-1.5 1.3-4.3 1-6.3-.8-8.8-1-12.7-.6l-5.8.2a26 26 0 0 0-8.9 2.1 15.7 15.7 0 0 0-8.6 10.3l-.6-1.3zm21.4-14.1c.6-.6.6-2.2 0-2.8-.6-.7-2-.6-2.7 0-.7.8-.7 1.6 0 2.5.6.8 2 1 2.7.3zm-17.8 12.8a15 15 0 0 1 2.8-4.5c1.1-1.2 2.9-2 6.5-2.8 4.5-1.1 8-1.6 12.1-1.8 5-.2 6.3 0 20.6 2.7 4.8 1 9 .8 12-.3 2-.8 4-2.4 5-4 1-1.8 3.1-3.3 4.6-3.3.5 0 1.2 1.1 1.2 2 0 1.3-.5 2.4-2 4a21 21 0 0 1-8.8 5.4c-1.5.6-1.9.6-6.8.4-3.4 0-5.9-.2-7-.5-4-1-11.9-1.8-18.4-2-11-.2-16.2.9-20.3 4.3l-1.6 1.2.1-.8zm85.5-6.6c-4.8-1.1-7.8-2.8-7.8-4.3 0-1.4.6-1.6 3.5-1.6 3.2.1 5 .4 6.9 1.3 2.8 1.3 4 3 2.9 4.4-1 1-1.9 1-5.5.2zm-38.5-6.3c-2.3-.5-5.3-3-6.4-5.2-.6-1.3-.8-2-.9-3.7v-2.1l.5.8c1 1.8 2.7 2.4 4.6 2 3.6-1 3.6-6.6 0-8l-.7-.4 1.3-.4c2-.7 5.6-.6 7.3.1a8 8 0 0 1 4.4 5c1 2.5 1 3.7.2 6.5-.6 1.8-.9 2.3-1.8 3.2l-2 1.5a12 12 0 0 1-6.5.7zm37-.3c-2.3-.3-5.2-1-6.3-1.5-1.7-.8-1.6-2.4.2-3.2 2.3-1.1 8.7-.5 11.2 1 1.8 1 1.8 3 0 3.6-1 .4-2 .4-5 0zm-53.8-6.6c-1.7-1.2-1.7-3.5.2-8.3 1.2-2.9 1.2-3 3.1-5.2a30 30 0 0 1 7-5c2-.7 5.1-1.3 6.5-1.3 3.3 0 8 1.4 11.3 3.4 3.6 2.2 6.4 5.9 6.7 8.7.1 1 0 1.4-.4 1.9-1.1 1-2.1.6-4.5-1.9-3.7-4-8-6.3-12-6.5-5.6-.4-9.5 2-12.3 7.4l-1.8 4.5c-.7 2.8-1.9 3.5-3.8 2.3zm49.6-.1c-2.5-.3-3-.4-3.4-1-1.4-1.7.8-3.1 4.7-3.1 3 0 7.1.9 8.1 1.8.8.6.6 1.8-.3 2.3-1 .4-4.7.5-9.1 0zm-65.6-3.9c-1-1-1.3-4.9-.4-8 .6-2.4 2-5 3.4-6.8a42.4 42.4 0 0 1 5.8-5.4 49.6 49.6 0 0 1 17.9-6.2c2.8-.5 9-.5 11 0 2 .3 6 .3 7 0a28 28 0 0 1 5.3-1.4c1 0 2 1 1.8 1.7-.3 1-1.3 1.7-3.6 2.6-3.4 1.3-4.8 1.4-10.9 1-4.2-.2-6.3-.2-9.7 0-4.2.3-4.5.4-8.7 1.8a23.6 23.6 0 0 0-15.2 11.2c-.7 1.5-1.2 4.7-1.2 6.8 0 2.4-1.4 4-2.5 2.7zm67.2-2.9c-1.9-.3-4.7-1.2-5.6-1.8-1.6-1-1.3-2.8.4-3.4.8-.2 1.6-.2 3.9 0 7.6 1 8.5 1.3 9 2.3.5.9.2 1.7-1 2.5-1 .6-1.4.7-3.3.6-1.2 0-2.7 0-3.4-.2zm-4.1-7.6c-3.1-.5-6-1.4-6.9-2.2-.8-.8-.8-2.3 0-3 .5-.5 1-.5 3.2-.5 1.5 0 3.2.2 3.8.4l3 .2c1 0 2.1.1 2.5.3 2.5 1 2.3 3.4-.5 4.6-.8.4-3.6.5-5.1.2zm-12-7.2c-1.5-.3-2.2-.6-2.8-1.5-.3-.5-.3-.7 0-1.4.4-1.1.8-1.3 3.7-1.6a16 16 0 0 0 3.2-.7c1.5-.7 4-1.4 4.7-1.4 1.1 0 2.4 1.3 2.4 2.3 0 2.8-6.3 5.1-11.2 4.3z"
        style="fill: #050505"
        transform="matrix(4.9 0 0 4.9 -789.8 -959.8)"
    />
</svg>
